<svg width="470" height="631" viewBox="0 0 470 631" fill="none" xmlns="http://www.w3.org/2000/svg">
<path d="M246.938 540.353C272.434 540.353 294.84 539.967 314.155 539.194C334.243 537.649 350.854 535.331 363.988 532.241V352.61C356.262 348.747 343.514 345.657 325.744 343.339C308.747 340.249 287.886 338.703 263.163 338.703C246.938 338.703 229.555 339.862 211.012 342.18C193.242 344.498 176.631 349.52 161.179 357.246C146.5 364.199 134.138 374.243 124.094 387.377C114.05 399.739 109.028 416.35 109.028 437.21C109.028 475.841 121.39 502.882 146.113 518.334C170.837 533.013 204.445 540.353 246.938 540.353ZM237.667 0.302388C280.933 0.302388 317.245 6.09694 346.604 17.686C376.736 28.5025 400.687 44.3409 418.457 65.2012C436.999 85.2889 450.133 109.626 457.86 138.212C465.586 166.026 469.449 196.93 469.449 230.925V607.57C460.177 609.115 447.043 611.433 430.046 614.523C413.821 616.841 395.279 619.159 374.418 621.477C353.558 623.795 330.766 625.726 306.043 627.271C282.092 629.589 258.141 630.748 234.19 630.748C200.196 630.748 168.905 627.271 140.319 620.318C111.733 613.364 87.0092 602.548 66.1488 587.868C45.2885 572.416 29.0638 552.329 17.4747 527.605C5.88567 502.882 0.0911301 473.137 0.0911301 438.369C0.0911301 405.147 6.65827 376.561 19.7926 352.61C33.6994 328.659 52.242 309.344 75.4201 294.665C98.5983 279.985 125.639 269.169 156.544 262.215C187.448 255.262 219.897 251.785 253.892 251.785C264.708 251.785 275.911 252.558 287.5 254.103C299.089 254.876 309.906 256.421 319.95 258.739C330.766 260.284 340.037 261.829 347.763 263.374C355.489 264.92 360.898 266.078 363.988 266.851V236.719C363.988 218.95 362.057 201.566 358.193 184.569C354.33 166.799 347.377 151.347 337.333 138.212C327.289 124.305 313.382 113.489 295.612 105.763C278.615 97.2643 256.21 93.015 228.396 93.015C192.856 93.015 161.566 95.7191 134.524 101.127C108.256 105.763 88.5544 110.785 75.4201 116.193L62.6721 26.9573C76.579 20.7765 99.7572 14.9819 132.207 9.57366C164.656 3.39281 199.809 0.302388 237.667 0.302388Z" fill="#3B82F6"/>
</svg>
